# AST/ASF file generated using VICON BodyLanguage
# -----------------------------------------------
:version 1.10
:name VICON
:units
  mass 1.0
  length 0.45
  angle deg
:documentation
   .ast/.asf automatically generated from VICON data using
   VICON BodyBuilder and BodyLanguage model FoxedUp or BRILLIANT.MOD
:root
   order TX TY TZ RX RY RZ
   axis XYZ
   position 0 0 0  
   orientation 0 0 0 
:bonedata
  begin
     id 1 
     name lhipjoint
     direction 0.558404 -0.748506 0.357664 
     length 2.4234 
     axis 0 0 0  XYZ
  end
  begin
     id 2 
     name lfemur
     direction 0.34202 -0.939693 0  
     length 7.14567  
     axis 0 0 20  XYZ
    dof rx ry rz
    limits (-160.0 20.0)
           (-70.0 70.0)
           (-60.0 70.0)
  end
  begin
     id 3 
     name ltibia
     direction 0.34202 -0.939693 0   
     length 8.13956   
     axis 0 0 20   XYZ
    dof rx
    limits (-10.0 170.0)
  end
  begin
     id 4 
     name lfoot
     direction 0.0791314 -0.217412 0.972867   
     length 2.00134   
     axis -90 7.62852e-016 20   XYZ
    dof rx rz
    limits (-45.0 90.0)
           (-70.0 20.0)
  end
  begin
     id 5 
     name ltoes
     direction 1.53547e-011 -4.21922e-011 1   
     length 1.00735   
     axis -90 7.62852e-016 20   XYZ
    dof rx
    limits (-90.0 20.0)
  end
  begin
     id 6 
     name rhipjoint
     direction -0.496392 -0.78327 0.374276   
     length 2.31584  
     axis 0 0 0  XYZ 
  end
  begin
     id 7 
     name rfemur
     direction -0.34202 -0.939693 0   
     length 7.47417   
     axis 0 0 -20   XYZ
    dof rx ry rz
    limits (-160.0 20.0)
           (-70.0 70.0)
           (-70.0 60.0)
  end
  begin
     id 8 
     name rtibia
     direction -0.34202 -0.939693 0   
     length 7.69071   
     axis 0 0 -20   XYZ
    dof rx
    limits (-10.0 170.0)
 end
 begin
     id 9 
     name rfoot
     direction -0.103069 -0.28318 0.953512   
     length 2.16135  
     axis -90 -7.62852e-016 -20   XYZ
    dof rx rz
    limits (-45.0 90.0)
           (-20.0 70.0)
  end
  begin
     id 10 
     name rtoes
     direction -1.53581e-011 -4.21904e-011 1   
     length 1.07867   
     axis -90 -7.62852e-016 -20   XYZ
    dof rx
    limits (-90.0 20.0)
  end
  begin
     id 11 
     name lowerback
     direction -0.0258961 0.994776 -0.0987407   
     length 2.19412   
     axis 0 0 0   XYZ
    dof rx ry rz
    limits (-20.0 45.0)
           (-30.0 30.0)
           (-30.0 30.0)
  end
  begin
     id 12 
     name upperback
     direction 0.0402454 0.999185 0.00320666   
     length 2.18445   
     axis 0 0 0   XYZ
    dof rx ry rz
    limits (-20.0 45.0)
           (-30.0 30.0)
           (-30.0 30.0)
  end
  begin
     id 13 
     name thorax
     direction 0.0519376 0.997415 0.0496558   
     length 2.21487   
     axis 0 0 0   XYZ
    dof rx ry rz
    limits (-20.0 45.0)
           (-30.0 30.0)
           (-30.0 30.0)
  end
  begin
     id 14 
     name lowerneck
     direction -0.0921276 0.983211 0.157506   
     length 1.61201   
     axis 0 0 0   XYZ
    dof rx ry rz
    limits (-20.0 45.0)
           (-30.0 30.0)
           (-30.0 30.0)
  end
  begin
     id 15 
     name upperneck
     direction 0.0820814 0.98162 -0.172292   
     length 1.65275   
     axis 0 0 0   XYZ
    dof rx ry rz
    limits (-20.0 45.0)
           (-30.0 30.0)
           (-30.0 30.0)
  end
  begin
     id 16
     name head
     direction 0.0336554 0.996413 -0.0776455  
     length 1.66415  
     axis 0 0 0   XYZ
    dof rx ry rz
    limits (-20.0 45.0)
           (-30.0 30.0)
           (-30.0 30.0)
  end
  begin
     id 17 
     name lclavicle
     direction 0.94696 0.284418 -0.149576  
     length 3.41447  
     axis 0 0 0   XYZ
    dof ry rz
    limits (-20.0 10.0)
           (0.0 20.0)
  end
  begin
     id 18 
     name lhumerus
     direction 1 -0.000130264 -9.81312e-005   
     length 5.19964   
     axis 180 -30 -90   XYZ
    dof rx ry rz
    limits (-60.0 90.0)
           (-90.0 90.0)
           (-90.0 90.0)
  end
  begin
     id 19
     name lradius
     direction 1 -4.48961e-011 1.43854e-026   
     length 3.32189   
     axis 180 -30 -90   XYZ
    dof rx
    limits (-10.0 170.0)
  end
  begin
     id 20
     name lwrist
     direction 1 -4.48958e-011 3.1502e-026   
     length 1.66095   
     axis -1.97692e-014 90 90   XYZ
    dof ry
    limits (-180.0 0.0)
 end
  begin
     id 21 
     name lhand
     direction 1 -4.48927e-011 6.3004e-026   
     length 0.645616   
     axis -4.02019e-014 90 90   XYZ
    dof rx rz
    limits (-90.0 90.0)
           (-45.0 45.0)
  end
  begin
     id 22 
     name lfingers
     direction 1 -4.4904e-011 1.26008e-025   
     length 0.520512   
     axis -8.04039e-014 90 90   XYZ
    dof rx
    limits (0.0 90.0)
  end
  begin
     id 23
     name lthumb
     direction 0.707107 -6.34947e-011 0.707107   
     length 0.747354   
     axis -90 45 2.85299e-015   XYZ
    dof rx rz
    limits (-45.0 45.0)
           (-45.0 45.0)
  end
  begin
     id 24 
     name rclavicle
     direction -0.909391 0.383475 -0.161107   
     length 3.25176  
     axis 0 0 0   XYZ 
    dof ry rz
    limits (-10.0 20.0)
           (-20.0 0.0)
  end
  begin
     id 25 
     name rhumerus
     direction -1 -4.48965e-011 -1.81384e-027  
     length 5.6595   
     axis 180 30 90   XYZ
    dof rx ry rz
    limits (-90.0 60.0)
           (-90.0 90.0)
           (-90.0 90.0)
  end
  begin
     id 26 
     name rradius
     direction -1 -4.48996e-011 -8.09397e-027   
     length 3.37604   
     axis 180 30 90   XYZ
    dof rx
    limits (-10.0 170.0)
  end
  begin
     id 27 
     name rwrist
     direction -1 -4.48927e-011 -1.56669e-026   
     length 1.68802   
     axis 1.21142e-014 -90 -90   XYZ
    dof ry
    limits (-180.0 0.0)
  end
  begin
     id 28
     name rhand
     direction -1 -4.48912e-011 -3.13339e-026   
     length 0.824702   
     axis 1.99937e-014 -90 -90   XYZ
    dof rx rz
    limits (-90.0 90.0)
           (-45.0 45.0)
  end
  begin
     id 29
     name rfingers
     direction -1 -4.49011e-011 -6.26677e-026   
     length 0.664896   
     axis 3.99874e-014 -90 -90   XYZ
    dof rx
    limits (0.0 90.0)
  end
  begin
     id 30
     name rthumb
     direction -0.707107 -6.34931e-011 0.707107   
     length 0.954662   
     axis -90 -45 -2.85299e-015   XYZ
    dof rx rz
    limits (-45.0 45.0)
           (-45.0 45.0)
  end
:hierarchy
  begin
    root lhipjoint rhipjoint lowerback
    lhipjoint lfemur
    lfemur ltibia
    ltibia lfoot
    lfoot ltoes
    rhipjoint rfemur
    rfemur rtibia
    rtibia rfoot
    rfoot rtoes
    lowerback upperback
    upperback thorax
    thorax lowerneck lclavicle rclavicle
    lowerneck upperneck
    upperneck head
    lclavicle lhumerus
    lhumerus lradius
    lradius lwrist
    lwrist lhand lthumb
    lhand lfingers
    rclavicle rhumerus
    rhumerus rradius
    rradius rwrist
    rwrist rhand rthumb
    rhand rfingers
  end

#!OML:ASF F:\VICON\USERDATA\INSTALL\rory3\rory3.ASF
:FULLY-SPECIFIED
:DEGREES
250
root 6.53125 15.7874 -17.0684 26.2442 -29.5802 -10.7726
lowerback 14.1613 -0.944187 -0.82641
upperback 0.721237 -0.893981 7.69891
thorax -7.07 -0.310859 9.01926
lowerneck -16.3344 -4.00945 -11.8101
upperneck 19.6511 -5.49083 12.8687
head 9.59011 -2.10933 5.77868
rclavicle 2.5842e-015 6.36111e-015
rhumerus -24.0944 -1.28348 -68.4001
rradius 65.4013
rwrist -14.1761
rhand -16.2625 17.3689
rfingers 7.12502
rthumb 9.94693 -12.3761
lclavicle 2.5842e-015 6.36111e-015
lhumerus -18.858 26.9837 54.0191
lradius 26.2168
lwrist -9.44981
lhand -7.50047 31.548
lfingers 7.12502
lthumb 18.3894 60.6988
rfemur -37.9696 -4.72235 26.2958
rtibia 69.9605
rfoot -35.1365 -9.91571
rtoes -14.8551
lfemur -37.5503 6.13129 -19.6821
ltibia 93.6313
lfoot 5.7394 -2.81807
ltoes 8.63738
251
root 6.43315 15.8007 -16.7791 26.5022 -29.4875 -11.3622
lowerback 14.2042 -0.572494 -0.547994
upperback 0.531684 -0.328312 7.86219
thorax -7.39246 -0.025562 8.93935
lowerneck -15.7157 -4.2807 -12.0548
upperneck 19.5081 -5.85819 12.8582
head 9.48425 -2.31943 5.76218
rclavicle -2.20651e-014 -1.19271e-014
rhumerus -23.4883 -1.26128 -68.0597
rradius 67.5102
rwrist -14.1964
rhand -16.4237 17.347
rfingers 7.12502
rthumb 9.79137 -12.4054
lclavicle -2.20651e-014 -1.19271e-014
lhumerus -19.9307 26.8529 52.4605
lradius 26.2267
lwrist -9.43364
lhand -7.57285 31.467
lfingers 7.12502
lthumb 18.3198 60.6243
rfemur -35.9005 -4.62534 26.404
rtibia 68.4862
rfoot -35.3205 -9.47967
rtoes -15.2175
lfemur -40.9782 7.4131 -19.2179
ltibia 95.9536
lfoot 3.90924 -3.39362
ltoes 4.38193
252
root 6.33431 15.8294 -16.4694 26.6609 -29.5049 -11.9636
lowerback 14.2021 -0.197921 -0.297271
upperback 0.482326 0.222321 7.9631
thorax -7.53236 0.241955 8.79534
lowerneck -15.4865 -4.57874 -12.0157
upperneck 19.5194 -6.28186 12.7264
head 9.50086 -2.53338 5.64937
rclavicle 2.06736e-014 -5.36719e-014
rhumerus -22.5484 -1.54196 -67.9471
rradius 69.3359
rwrist -13.9132
rhand -16.2131 18.0308
rfingers 7.12502
rthumb 9.99457 -11.7119
lclavicle 2.06736e-014 -5.36719e-014
lhumerus -20.6666 27.1878 50.7998
lradius 26.026
lwrist -9.69933
lhand -7.48831 31.75
lfingers 7.12502
lthumb 18.4011 60.8997
rfemur -33.5994 -4.55199 26.4264
rtibia 66.8107
rfoot -35.2319 -8.83655
rtoes -15.3822
lfemur -44.1393 8.5069 -18.7525
ltibia 97.7173
lfoot 1.97514 -3.5589
ltoes 4.44328
253
root 6.23357 15.8635 -16.155 26.7093 -29.5176 -12.5063
lowerback 14.2966 0.0869991 -0.228441
upperback 0.468533 0.62786 8.09756
thorax -7.66569 0.444316 8.82807
lowerneck -15.4843 -4.82716 -12.0892
upperneck 19.7054 -6.64619 12.7857
head 9.62282 -2.7016 5.6389
rclavicle 7.5737e-014 -6.71892e-014
rhumerus -21.659 -1.2427 -67.9191
rradius 71.3975
rwrist -13.5805
rhand -16.4114 18.6659
rfingers 7.12502
rthumb 9.80322 -11.0859
lclavicle 7.5737e-014 -6.71892e-014
lhumerus -21.7991 28.0927 48.9333
lradius 26.0333
lwrist -10.0365
lhand -7.3196 32.4519
lfingers 7.12502
lthumb 18.5634 61.5861
rfemur -31.1728 -4.41867 26.3584
rtibia 65.0125
rfoot -34.9129 -8.24672
rtoes -15.7747
lfemur -47.0828 9.62073 -18.4212
ltibia 99.0317
lfoot -0.166919 -3.77308
ltoes 1.55224
254
root 6.13364 15.8993 -15.8364 26.6643 -29.3284 -13.0288
lowerback 14.389 0.260141 0.0304048
upperback 0.473343 0.911559 8.19804
thorax -7.75525 0.576829 8.73222
lowerneck -14.7316 -5.02769 -12.7971
upperneck 19.4518 -7.0248 13.6783
head 9.50993 -2.87095 6.03406
rclavicle 5.84427e-014 -3.33958e-014
rhumerus -21.1058 -0.500334 -67.8482
rradius 73.9706
rwrist -13.8919
rhand -17.0685 18.8979
rfingers 7.12502
rthumb 9.1692 -10.8828
lclavicle 5.84427e-014 -3.33958e-014
lhumerus -23.211 28.6906 46.9563
lradius 26.2492
lwrist -9.99489
lhand -7.48565 32.4863
lfingers 7.12502
lthumb 18.4037 61.6357
rfemur -28.6267 -4.43829 26.3439
rtibia 63.112
rfoot -34.345 -7.76211
rtoes -16.7174
lfemur -50.0303 10.6485 -18.124
ltibia 99.946
lfoot -2.14617 -4.0313
ltoes -1.77992
255
root 6.0355 15.9359 -15.5104 26.6995 -28.896 -13.7041
lowerback 14.4064 0.398531 0.680466
upperback 0.468095 1.20828 8.27337
thorax -7.80443 0.698074 8.37021
lowerneck -14.3601 -5.33713 -13.1733
upperneck 19.5763 -7.57965 14.3054
head 9.6115 -3.11096 6.26157
rclavicle 2.74323e-014 7.43455e-014
rhumerus -20.23 -0.621081 -67.9301
rradius 75.8086
rwrist -14.1223
rhand -16.8715 19.5994
rfingers 7.12502
rthumb 9.35935 -10.1728
lclavicle 2.74323e-014 7.43455e-014
lhumerus -24.2019 28.8237 45.058
lradius 26.2165
lwrist -9.90506
lhand -7.68234 32.2337
lfingers 7.12502
lthumb 18.2145 61.4009
rfemur -26.0073 -4.58368 26.529
rtibia 61.133
rfoot -33.5674 -6.81244
rtoes -16.6985
lfemur -53.1115 11.4733 -17.6464
ltibia 100.465
lfoot -3.95322 -4.43849
ltoes -2.13737
